<svg xmlns="http://www.w3.org/2000/svg" xmlns:xlink="http://www.w3.org/1999/xlink" viewBox="0 0 438 239" width="438" height="239" preserveAspectRatio="xMidYMid meet" style="width: 100%; height: 100%; transform: translate3d(0px, 0px, 0px);" id="Concrete Truck"><defs><clipPath id="__lottie_element_798"><rect width="438" height="239" x="0" y="0"/></clipPath><clipPath id="__lottie_element_803"><path d="M0,0 L290,0 L290,154 L0,154z"/></clipPath><g id="__lottie_element_818"><g clip-path="url(#__lottie_element_819)" transform="matrix(1,0,0,1,0,-243.5227508544922)" opacity="1" style="display: block;"><g transform="matrix(1,0,0,1,145,94)" opacity="1" style="display: block;"><g opacity="1" transform="matrix(1,0,0,1,0,147)"><path fill="rgb(116,113,113)" fill-opacity="1" d=" M155,-40.5 C155,-40.5 -165,17.5 -165,17.5 C-165,17.5 -160.5,46 -160.5,46 C-160.5,46 155,-11 155,-11 C155,-11 155,-40.5 155,-40.5z"/></g></g><g transform="matrix(1,0,0,1,145,141)" opacity="1" style="display: block;"><g opacity="1" transform="matrix(1,0,0,1,0,147)"><path fill="rgb(116,113,113)" fill-opacity="1" d=" M155,-40.5 C155,-40.5 -165,17.5 -165,17.5 C-165,17.5 -160.5,46 -160.5,46 C-160.5,46 155,-11 155,-11 C155,-11 155,-40.5 155,-40.5z"/></g></g><g transform="matrix(1,0,0,1,145,42)" opacity="1" style="display: block;"><g opacity="1" transform="matrix(1,0,0,1,0,147)"><path fill="rgb(116,113,113)" fill-opacity="1" d=" M155,-40.5 C155,-40.5 -165,17.5 -165,17.5 C-165,17.5 -160.5,46 -160.5,46 C-160.5,46 155,-11 155,-11 C155,-11 155,-40.5 155,-40.5z"/></g></g><g transform="matrix(1,0,0,1,145,-54.5)" opacity="1" style="display: block;"><g opacity="1" transform="matrix(1,0,0,1,0,147)"><path fill="rgb(116,113,113)" fill-opacity="1" d=" M155,-40.5 C155,-40.5 -165,17.5 -165,17.5 C-165,17.5 -160.5,46 -160.5,46 C-160.5,46 155,-11 155,-11 C155,-11 155,-40.5 155,-40.5z"/></g></g><g transform="matrix(1,0,0,1,145,-7.5)" opacity="1" style="display: block;"><g opacity="1" transform="matrix(1,0,0,1,0,147)"><path fill="rgb(116,113,113)" fill-opacity="1" d=" M155,-40.5 C155,-40.5 -165,17.5 -165,17.5 C-165,17.5 -160.5,46 -160.5,46 C-160.5,46 155,-11 155,-11 C155,-11 155,-40.5 155,-40.5z"/></g></g><g transform="matrix(1,0,0,1,145,-106.5)" opacity="1" style="display: block;"><g opacity="1" transform="matrix(1,0,0,1,0,147)"><path fill="rgb(116,113,113)" fill-opacity="1" d=" M155,-40.5 C155,-40.5 -165,17.5 -165,17.5 C-165,17.5 -160.5,46 -160.5,46 C-160.5,46 155,-11 155,-11 C155,-11 155,-40.5 155,-40.5z"/></g></g><g transform="matrix(1,0,0,1,145,391)" opacity="1" style="display: block;"><g opacity="1" transform="matrix(1,0,0,1,0,147)"><path fill="rgb(116,113,113)" fill-opacity="1" d=" M155,-40.5 C155,-40.5 -165,17.5 -165,17.5 C-165,17.5 -160.5,46 -160.5,46 C-160.5,46 155,-11 155,-11 C155,-11 155,-40.5 155,-40.5z"/></g></g><g transform="matrix(1,0,0,1,145,438)" opacity="1" style="display: block;"><g opacity="1" transform="matrix(1,0,0,1,0,147)"><path fill="rgb(116,113,113)" fill-opacity="1" d=" M155,-40.5 C155,-40.5 -165,17.5 -165,17.5 C-165,17.5 -160.5,46 -160.5,46 C-160.5,46 155,-11 155,-11 C155,-11 155,-40.5 155,-40.5z"/></g></g><g transform="matrix(1,0,0,1,145,339)" opacity="1" style="display: block;"><g opacity="1" transform="matrix(1,0,0,1,0,147)"><path fill="rgb(116,113,113)" fill-opacity="1" d=" M155,-40.5 C155,-40.5 -165,17.5 -165,17.5 C-165,17.5 -160.5,46 -160.5,46 C-160.5,46 155,-11 155,-11 C155,-11 155,-40.5 155,-40.5z"/></g></g><g transform="matrix(1,0,0,1,145,242.5)" opacity="1" style="display: block;"><g opacity="1" transform="matrix(1,0,0,1,0,147)"><path fill="rgb(116,113,113)" fill-opacity="1" d=" M155,-40.5 C155,-40.5 -165,17.5 -165,17.5 C-165,17.5 -160.5,46 -160.5,46 C-160.5,46 155,-11 155,-11 C155,-11 155,-40.5 155,-40.5z"/></g></g><g transform="matrix(1,0,0,1,145,289.5)" opacity="1" style="display: block;"><g opacity="1" transform="matrix(1,0,0,1,0,147)"><path fill="rgb(116,113,113)" fill-opacity="1" d=" M155,-40.5 C155,-40.5 -165,17.5 -165,17.5 C-165,17.5 -160.5,46 -160.5,46 C-160.5,46 155,-11 155,-11 C155,-11 155,-40.5 155,-40.5z"/></g></g><g transform="matrix(1,0,0,1,145,190.5)" opacity="1" style="display: block;"><g opacity="1" transform="matrix(1,0,0,1,0,147)"><path fill="rgb(116,113,113)" fill-opacity="1" d=" M155,-40.5 C155,-40.5 -165,17.5 -165,17.5 C-165,17.5 -160.5,46 -160.5,46 C-160.5,46 155,-11 155,-11 C155,-11 155,-40.5 155,-40.5z"/></g></g></g></g><clipPath id="__lottie_element_819"><path d="M0,0 L290,0 L290,631 L0,631z"/></clipPath><mask id="__lottie_element_818_1" mask-type="alpha"><use xmlns:ns1="http://www.w3.org/1999/xlink" ns1:href="#__lottie_element_818"/></mask></defs><g clip-path="url(#__lottie_element_798)"><g transform="matrix(4.67588996887207,0,0,4.67588996887207,-4016.8046875,-2658.0302734375)" opacity="1" style="display: block;"><g opacity="1" transform="matrix(1,0,0,1,862.1320190429688,607.697998046875)"><path fill="rgb(83,91,101)" fill-opacity="1" d=" M-0.8429999947547913,-4.585999965667725 C-1.305999994277954,-4.585999965667725 -1.680999994277954,-4.210999965667725 -1.680999994277954,-3.747999906539917 C-1.680999994277954,-3.747999906539917 -1.680999994277954,0.984000027179718 -1.680999994277954,0.984000027179718 C-1.680999994277954,2.8949999809265137 -0.19699999690055847,4.455999851226807 1.680999994277954,4.585999965667725 C1.680999994277954,4.585999965667725 1.680999994277954,-4.585999965667725 1.680999994277954,-4.585999965667725 C1.680999994277954,-4.585999965667725 -0.8429999947547913,-4.585999965667725 -0.8429999947547913,-4.585999965667725z"/></g><g opacity="1" transform="matrix(1,0,0,1,872.0999755859375,602.4089965820312)"><path fill="rgb(202,107,21)" fill-opacity="1" d=" M10.748000144958496,-0.703000009059906 C10.748000144958496,-0.703000009059906 10.748000144958496,0.703000009059906 10.748000144958496,0.703000009059906 C10.748000144958496,0.703000009059906 -10.748000144958496,0.703000009059906 -10.748000144958496,0.703000009059906 C-10.748000144958496,0.703000009059906 -10.748000144958496,-0.703000009059906 -10.748000144958496,-0.703000009059906 C-10.748000144958496,-0.703000009059906 10.748000144958496,-0.703000009059906 10.748000144958496,-0.703000009059906z"/></g><g opacity="1" transform="matrix(1,0,0,1,871.6489868164062,589.4569702148438)"><path fill="rgb(254,144,46)" fill-opacity="1" d=" M11.197999954223633,-10.454000473022461 C11.197999954223633,-11.444999694824219 10.395999908447266,-12.248000144958496 9.404999732971191,-12.248000144958496 C9.404999732971191,-12.248000144958496 -1.6369999647140503,-12.248000144958496 -1.6369999647140503,-12.248000144958496 C-4.224999904632568,-12.248000144958496 -6.716000080108643,-10.29699993133545 -7.751999855041504,-7.315999984741211 C-7.751999855041504,-7.315999984741211 -11.197999954223633,4.864999771118164 -11.197999954223633,4.864999771118164 C-11.197999954223633,4.864999771118164 -11.197999954223633,11.40999984741211 -11.197999954223633,11.40999984741211 C-11.197999954223633,11.873000144958496 -10.822999954223633,12.248000144958496 -10.359999656677246,12.248000144958496 C-10.359999656677246,12.248000144958496 11.197999954223633,12.248000144958496 11.197999954223633,12.248000144958496 C11.197999954223633,12.248000144958496 11.197999954223633,4.864999771118164 11.197999954223633,4.864999771118164 C11.197999954223633,4.864999771118164 11.197999954223633,-10.454000473022461 11.197999954223633,-10.454000473022461z"/></g><g opacity="1" transform="matrix(1,0,0,1,862.7769775390625,587.9329833984375)"><path fill="rgb(136,138,142)" fill-opacity="1" d=" M-2.1570000648498535,5.790999889373779 C-2.1570000648498535,5.790999889373779 -0.5049999952316284,5.281000137329102 -0.210999995470047,4.230000019073486 C0.20399999618530273,2.75 2.190000057220459,-4.789999961853027 2.1570000648498535,-5.256999969482422 C2.119999885559082,-5.791999816894531 1.121000051498413,-5.790999889373779 1.121000051498413,-5.790999889373779 C1.121000051498413,-5.790999889373779 -2.1570000648498535,5.790999889373779 -2.1570000648498535,5.790999889373779z"/></g><g opacity="1" transform="matrix(1,0,0,1,912.1719970703125,603.9030151367188)"><path fill="rgb(40,41,46)" fill-opacity="1" d=" M29.41699981689453,-2.197499990463257 C29.41699981689453,-2.197499990463257 29.41699981689453,2.197499990463257 29.41699981689453,2.197499990463257 C29.41699981689453,2.197499990463257 -29.41699981689453,2.197499990463257 -29.41699981689453,2.197499990463257 C-29.41699981689453,2.197499990463257 -29.41699981689453,-2.197499990463257 -29.41699981689453,-2.197499990463257 C-29.41699981689453,-2.197499990463257 29.41699981689453,-2.197499990463257 29.41699981689453,-2.197499990463257z"/></g><g opacity="1" transform="matrix(1,0,0,1,870.0289916992188,587.4110107421875)"><path fill="rgb(136,138,142)" fill-opacity="1" d=" M5.781000137329102,4.2220001220703125 C5.781000137329102,4.64300012588501 5.4679999351501465,5 5.050000190734863,5.053999900817871 C5.050000190734863,5.053999900817871 -4.835000038146973,5.26200008392334 -4.835000038146973,5.26200008392334 C-5.107999801635742,5.296999931335449 -5.381999969482422,5.196000099182129 -5.565999984741211,4.991000175476074 C-5.75,4.785999774932861 -5.822000026702881,4.504000186920166 -5.757999897003174,4.236000061035156 C-5.757999897003174,4.236000061035156 -3.6449999809265137,-4.625 -3.6449999809265137,-4.625 C-3.555000066757202,-5.002999782562256 -3.2179999351501465,-5.269000053405762 -2.8299999237060547,-5.269000053405762 C-2.8299999237060547,-5.269000053405762 4.942999839782715,-5.269000053405762 4.942999839782715,-5.269000053405762 C5.406000137329102,-5.269000053405762 5.781000137329102,-4.89300012588501 5.781000137329102,-4.429999828338623 C5.781000137329102,-4.429999828338623 5.781000137329102,4.2220001220703125 5.781000137329102,4.2220001220703125z"/></g><g opacity="1" transform="matrix(1,0,0,1,873.3309936523438,607.7039794921875)"><path fill="rgb(83,91,101)" fill-opacity="1" d=" M-9.517000198364258,-4.5920000076293945 C-9.517000198364258,-4.5920000076293945 -9.517000198364258,4.579999923706055 -9.517000198364258,4.579999923706055 C-9.432999610900879,4.585999965667725 -9.350000381469727,4.5920000076293945 -9.265000343322754,4.5920000076293945 C-9.265000343322754,4.5920000076293945 -5.379000186920166,4.5920000076293945 -5.379000186920166,4.5920000076293945 C-5.379000186920166,0.8840000033378601 -2.36299991607666,-2.13100004196167 1.3450000286102295,-2.13100004196167 C5.052999973297119,-2.13100004196167 8.069000244140625,0.8840000033378601 8.069000244140625,4.5920000076293945 C8.069000244140625,4.5920000076293945 9.178000450134277,4.5920000076293945 9.178000450134277,4.5920000076293945 C9.364999771118164,4.5920000076293945 9.517000198364258,4.440000057220459 9.517000198364258,4.252999782562256 C9.517000198364258,4.252999782562256 9.517000198364258,-4.5920000076293945 9.517000198364258,-4.5920000076293945 C9.517000198364258,-4.5920000076293945 -9.517000198364258,-4.5920000076293945 -9.517000198364258,-4.5920000076293945z"/></g><g opacity="1" transform="matrix(1,0,0,1,874.676025390625,612.2969970703125)"><path fill="rgb(40,41,46)" fill-opacity="1" d=" M6.197000026702881,0 C6.197000026702881,3.421999931335449 3.421999931335449,6.197000026702881 0,6.197000026702881 C-3.421999931335449,6.197000026702881 -6.197000026702881,3.421999931335449 -6.197000026702881,0 C-6.197000026702881,-3.421999931335449 -3.421999931335449,-6.197000026702881 0,-6.197000026702881 C3.421999931335449,-6.197000026702881 6.197000026702881,-3.421999931335449 6.197000026702881,0z"/></g><g opacity="1" transform="matrix(1,0,0,1,874.676025390625,612.2969970703125)"><path fill="rgb(200,200,200)" fill-opacity="1" d=" M0,-2.7939999103546143 C1.5420085191726685,-2.7939999103546143 2.7939999103546143,-1.5420085191726685 2.7939999103546143,0 C2.7939999103546143,1.5420085191726685 1.5420085191726685,2.7939999103546143 0,2.7939999103546143 C-1.5420085191726685,2.7939999103546143 -2.7939999103546143,1.5420085191726685 -2.7939999103546143,0 C-2.7939999103546143,-1.5420085191726685 -1.5420085191726685,-2.7939999103546143 0,-2.7939999103546143z"/></g><g opacity="1" transform="matrix(1,0,0,1,918.802001953125,612.2969970703125)"><path fill="rgb(40,41,46)" fill-opacity="1" d=" M6.197000026702881,0 C6.197000026702881,3.421999931335449 3.421999931335449,6.197000026702881 0,6.197000026702881 C-3.421999931335449,6.197000026702881 -6.197000026702881,3.421999931335449 -6.197000026702881,0 C-6.197000026702881,-3.421999931335449 -3.421999931335449,-6.197000026702881 0,-6.197000026702881 C3.421999931335449,-6.197000026702881 6.197000026702881,-3.421999931335449 6.197000026702881,0z"/></g><g opacity="1" transform="matrix(1,0,0,1,918.802001953125,612.2969970703125)"><path fill="rgb(200,200,200)" fill-opacity="1" d=" M2.7939999103546143,0 C2.7939999103546143,1.5429999828338623 1.5429999828338623,2.7939999103546143 0,2.7939999103546143 C-1.5429999828338623,2.7939999103546143 -2.7939999103546143,1.5429999828338623 -2.7939999103546143,0 C-2.7939999103546143,-1.5429999828338623 -1.5429999828338623,-2.7939999103546143 0,-2.7939999103546143 C1.5429999828338623,-2.7939999103546143 2.7939999103546143,-1.5429999828338623 2.7939999103546143,0z"/></g><g opacity="1" transform="matrix(1,0,0,1,918.802001953125,609.0159912109375)"><path fill="rgb(22,16,16)" fill-opacity="1" d=" M0,-4.127999782562256 C-4.284999847412109,-4.127999782562256 -7.440999984741211,-0.8930000066757202 -7.007999897003174,4.127999782562256 C-7.007999897003174,4.127999782562256 -6.500999927520752,3.6649999618530273 -6.500999927520752,3.6649999618530273 C-6.300000190734863,-1.1449999809265137 -3.236999988555908,-3.2009999752044678 0,-3.2009999752044678 C3.236999988555908,-3.2009999752044678 6.300000190734863,-1.1449999809265137 6.500999927520752,3.6649999618530273 C6.500999927520752,3.6649999618530273 7.007999897003174,4.127999782562256 7.007999897003174,4.127999782562256 C7.440999984741211,-0.8930000066757202 4.284999847412109,-4.127999782562256 0,-4.127999782562256z"/></g><g opacity="1" transform="matrix(1,0,0,1,891.0419921875,591.9719848632812)"><path fill="rgb(89,90,91)" fill-opacity="1" d=" M2.319999933242798,1.4889999628067017 C2.319999933242798,1.4889999628067017 -1.4889999628067017,2.319999933242798 -1.4889999628067017,2.319999933242798 C-1.4889999628067017,2.319999933242798 -2.319999933242798,-1.4889999628067017 -2.319999933242798,-1.4889999628067017 C-2.319999933242798,-1.4889999628067017 1.4889999628067017,-2.319999933242798 1.4889999628067017,-2.319999933242798 C1.4889999628067017,-2.319999933242798 2.319999933242798,1.4889999628067017 2.319999933242798,1.4889999628067017z"/></g><g opacity="1" transform="matrix(1,0,0,1,932.7940063476562,612.2969970703125)"><path fill="rgb(40,41,46)" fill-opacity="1" d=" M6.197000026702881,0 C6.197000026702881,3.421999931335449 3.421999931335449,6.197000026702881 0,6.197000026702881 C-3.421999931335449,6.197000026702881 -6.197000026702881,3.421999931335449 -6.197000026702881,0 C-6.197000026702881,-3.421999931335449 -3.421999931335449,-6.197000026702881 0,-6.197000026702881 C3.421999931335449,-6.197000026702881 6.197000026702881,-3.421999931335449 6.197000026702881,0z"/></g><g opacity="1" transform="matrix(1,0,0,1,932.7940063476562,612.2969970703125)"><path fill="rgb(200,200,200)" fill-opacity="1" d=" M2.7939999103546143,0 C2.7939999103546143,1.5429999828338623 1.5429999828338623,2.7939999103546143 0,2.7939999103546143 C-1.5429999828338623,2.7939999103546143 -2.7939999103546143,1.5429999828338623 -2.7939999103546143,0 C-2.7939999103546143,-1.5429999828338623 -1.5429999828338623,-2.7939999103546143 0,-2.7939999103546143 C1.5429999828338623,-2.7939999103546143 2.7939999103546143,-1.5429999828338623 2.7939999103546143,0z"/></g><g opacity="1" transform="matrix(1,0,0,1,932.7940063476562,609.0159912109375)"><path fill="rgb(22,16,16)" fill-opacity="1" d=" M0,-4.127999782562256 C-4.284999847412109,-4.127999782562256 -7.440999984741211,-0.8930000066757202 -7.007999897003174,4.127999782562256 C-7.007999897003174,4.127999782562256 -6.5,3.6649999618530273 -6.5,3.6649999618530273 C-6.298999786376953,-1.1449999809265137 -3.236999988555908,-3.2009999752044678 0,-3.2009999752044678 C3.236999988555908,-3.2009999752044678 6.298999786376953,-1.1449999809265137 6.5,3.6649999618530273 C6.5,3.6649999618530273 7.007999897003174,4.127999782562256 7.007999897003174,4.127999782562256 C7.440999984741211,-0.8930000066757202 4.284999847412109,-4.127999782562256 0,-4.127999782562256z"/></g><g opacity="1" transform="matrix(1,0,0,1,873.9730224609375,594.6959838867188)"><path fill="rgb(40,41,46)" fill-opacity="1" d=" M1.4630000591278076,0.22300000488758087 C1.4630000591278076,0.367000013589859 1.347000002861023,0.4830000102519989 1.2029999494552612,0.4830000102519989 C1.2029999494552612,0.4830000102519989 -1.2029999494552612,0.4830000102519989 -1.2029999494552612,0.4830000102519989 C-1.347000002861023,0.4830000102519989 -1.4630000591278076,0.367000013589859 -1.4630000591278076,0.22300000488758087 C-1.4630000591278076,0.22300000488758087 -1.4630000591278076,-0.22300000488758087 -1.4630000591278076,-0.22300000488758087 C-1.4630000591278076,-0.367000013589859 -1.347000002861023,-0.4830000102519989 -1.2029999494552612,-0.4830000102519989 C-1.2029999494552612,-0.4830000102519989 1.2029999494552612,-0.4830000102519989 1.2029999494552612,-0.4830000102519989 C1.347000002861023,-0.4830000102519989 1.4630000591278076,-0.367000013589859 1.4630000591278076,-0.22300000488758087 C1.4630000591278076,-0.22300000488758087 1.4630000591278076,0.22300000488758087 1.4630000591278076,0.22300000488758087z"/></g><g opacity="1" transform="matrix(1,0,0,1,0,0)"><g opacity="1" transform="matrix(1,0,0,1,899.3289794921875,609.1920166015625)"><path fill="rgb(72,72,72)" fill-opacity="1" d=" M6.840000152587891,3.0920000076293945 C6.840000152587891,3.0920000076293945 -6.840000152587891,3.0920000076293945 -6.840000152587891,3.0920000076293945 C-7.164000034332275,3.0920000076293945 -7.427000045776367,2.8289999961853027 -7.427000045776367,2.505000114440918 C-7.427000045776367,2.505000114440918 -7.427000045776367,-2.505000114440918 -7.427000045776367,-2.505000114440918 C-7.427000045776367,-2.8289999961853027 -7.164000034332275,-3.0920000076293945 -6.840000152587891,-3.0920000076293945 C-6.840000152587891,-3.0920000076293945 6.840000152587891,-3.0920000076293945 6.840000152587891,-3.0920000076293945 C7.164000034332275,-3.0920000076293945 7.427000045776367,-2.8289999961853027 7.427000045776367,-2.505000114440918 C7.427000045776367,-2.505000114440918 7.427000045776367,2.505000114440918 7.427000045776367,2.505000114440918 C7.427000045776367,2.8289999961853027 7.164000034332275,3.0920000076293945 6.840000152587891,3.0920000076293945z"/></g><g opacity="1" transform="matrix(1,0,0,1,893.8350219726562,609.14501953125)"><path fill="rgb(83,91,101)" fill-opacity="1" d=" M0.48350000381469727,-3.0450000762939453 C0.48350000381469727,-3.0450000762939453 0.48350000381469727,3.0450000762939453 0.48350000381469727,3.0450000762939453 C0.48350000381469727,3.0450000762939453 -0.48350000381469727,3.0450000762939453 -0.48350000381469727,3.0450000762939453 C-0.48350000381469727,3.0450000762939453 -0.48350000381469727,-3.0450000762939453 -0.48350000381469727,-3.0450000762939453 C-0.48350000381469727,-3.0450000762939453 0.48350000381469727,-3.0450000762939453 0.48350000381469727,-3.0450000762939453z"/></g><g opacity="1" transform="matrix(1,0,0,1,904.822021484375,609.14501953125)"><path fill="rgb(83,91,101)" fill-opacity="1" d=" M0.48350000381469727,-3.0450000762939453 C0.48350000381469727,-3.0450000762939453 0.48350000381469727,3.0450000762939453 0.48350000381469727,3.0450000762939453 C0.48350000381469727,3.0450000762939453 -0.48350000381469727,3.0450000762939453 -0.48350000381469727,3.0450000762939453 C-0.48350000381469727,3.0450000762939453 -0.48350000381469727,-3.0450000762939453 -0.48350000381469727,-3.0450000762939453 C-0.48350000381469727,-3.0450000762939453 0.48350000381469727,-3.0450000762939453 0.48350000381469727,-3.0450000762939453z"/></g><g opacity="1" transform="matrix(1,0,0,1,899.3289794921875,607.81298828125)"><path fill="rgb(25,25,25)" fill-opacity="1" d=" M0.8349999785423279,0 C0.8349999785423279,0.2680000066757202 0.8669999837875366,0.5070000290870667 0.6700000166893005,0.6600000262260437 C0.5289999842643738,0.7699999809265137 0.19300000369548798,0.8349999785423279 0,0.8349999785423279 C-0.1940000057220459,0.8349999785423279 -0.4880000054836273,0.7699999809265137 -0.6299999952316284,0.6589999794960022 C-0.8259999752044678,0.5059999823570251 -0.8349999785423279,0.2680000066757202 -0.8349999785423279,0 C-0.8349999785423279,-0.26899999380111694 -0.824999988079071,-0.5080000162124634 -0.6269999742507935,-0.6610000133514404 C-0.4860000014305115,-0.7699999809265137 -0.19200000166893005,-0.8349999785423279 0,-0.8349999785423279 C0.19499999284744263,-0.8349999785423279 0.5339999794960022,-0.7680000066757202 0.6759999990463257,-0.656000018119812 C0.8700000047683716,-0.503000020980835 0.8349999785423279,-0.26600000262260437 0.8349999785423279,0z"/></g></g><g opacity="1" transform="matrix(1,0,0,1,874.3610229492188,578.1060180664062)"><path fill="rgb(189,92,5)" fill-opacity="1" d=" M6.693999767303467,-0.8970000147819519 C6.693999767303467,-0.8970000147819519 -4.348999977111816,-0.8970000147819519 -4.348999977111816,-0.8970000147819519 C-5.849999904632568,-0.8970000147819519 -7.315999984741211,-0.2370000034570694 -8.487000465393066,0.8970000147819519 C-8.487000465393066,0.8970000147819519 8.487000465393066,0.8970000147819519 8.487000465393066,0.8970000147819519 C8.487000465393066,-0.09399999678134918 7.684999942779541,-0.8970000147819519 6.693999767303467,-0.8970000147819519z"/></g><g opacity="1" transform="matrix(1,0,0,1,888.8189697265625,593.926025390625)"><path fill="rgb(83,91,101)" fill-opacity="1" d=" M-3.4059998989105225,-7.78000020980835 C-3.4059998989105225,-7.78000020980835 -3.4059998989105225,7.78000020980835 -3.4059998989105225,7.78000020980835 C-3.4059998989105225,7.78000020980835 3.4059998989105225,7.78000020980835 3.4059998989105225,7.78000020980835 C3.4059998989105225,7.78000020980835 -0.5809999704360962,-7.78000020980835 -0.5809999704360962,-7.78000020980835 C-0.5809999704360962,-7.78000020980835 -2.5320000648498535,-13.829000473022461 -2.5320000648498535,-13.829000473022461 C-2.5320000648498535,-13.829000473022461 -3.438999891281128,-13.822999954223633 -3.438999891281128,-13.822999954223633 C-3.438999891281128,-13.822999954223633 -3.4059998989105225,-7.78000020980835 -3.4059998989105225,-7.78000020980835z"/></g><g opacity="1" transform="matrix(1,0,0,1,937.6380004882812,597.583984375)"><path fill="rgb(146,146,146)" fill-opacity="1" d=" M-3.4719998836517334,4.120999813079834 C-3.4719998836517334,4.120999813079834 -0.12999999523162842,-3.0869998931884766 -0.12999999523162842,-3.0869998931884766 C-0.12999999523162842,-3.0869998931884766 3.4719998836517334,-4.120999813079834 3.4719998836517334,-4.120999813079834 C3.4719998836517334,-4.120999813079834 3.4719998836517334,4.120999813079834 3.4719998836517334,4.120999813079834 C3.4719998836517334,4.120999813079834 -3.4719998836517334,4.120999813079834 -3.4719998836517334,4.120999813079834z"/></g><g opacity="1" transform="matrix(-0.8801199793815613,0,0,1,929.0250244140625,597.583984375)"><path fill="rgb(146,146,146)" fill-opacity="1" d=" M-3.4719998836517334,4.120999813079834 C-3.4719998836517334,4.120999813079834 -0.15199999511241913,-0.734000027179718 -0.15199999511241913,-0.734000027179718 C-0.15199999511241913,-0.734000027179718 3.430999994277954,-0.1120000034570694 3.430999994277954,-0.1120000034570694 C3.430999994277954,-0.1120000034570694 3.4719998836517334,4.120999813079834 3.4719998836517334,4.120999813079834 C3.4719998836517334,4.120999813079834 -3.4719998836517334,4.120999813079834 -3.4719998836517334,4.120999813079834z"/></g></g><g clip-path="url(#__lottie_element_803)" transform="matrix(0.9999858736991882,0,0,0.9999858736991882,145.00537109375,0.9977210760116577)" opacity="1" style="display: block;"><g transform="matrix(1,0,0,1,145,77)" opacity="1" style="display: block;"><g opacity="1" transform="matrix(1,0,0,1,0,0)"><path fill="rgb(211,211,211)" fill-opacity="1" d=" M-134.75,-29.562999725341797 C-134.75,-29.562999725341797 -145.25,3.25 -139.75,31 C-136.5,50 -117.75,74.96900177001953 -117.75,74.96900177001953 C-117.75,74.96900177001953 -134.75,-29.562999725341797 -134.75,-29.562999725341797z"/></g></g><g transform="matrix(-0.944238543510437,0.3292621970176697,0.3292621970176697,0.944238543510437,147.1544952392578,75.42088317871094)" opacity="1" style="display: block;"><g opacity="1" transform="matrix(1,0,0,1,0,0)"><path fill="rgb(211,211,211)" fill-opacity="1" d=" M-134.75,-29.562999725341797 C-134.75,-29.562999725341797 -145.25,3.25 -139.75,31 C-136.5,50 -117.75,74.96900177001953 -117.75,74.96900177001953 C-117.75,74.96900177001953 -134.75,-29.562999725341797 -134.75,-29.562999725341797z"/></g></g><g transform="matrix(1,0,0,1,145,77)" opacity="1" style="display: block;"><g opacity="1" transform="matrix(1,0,0,1,0,0)"><path fill="rgb(192,192,192)" fill-opacity="1" d=" M120.375,-72.625 C120.375,-72.625 15.125,-68.25 15.125,-68.25 C15.125,-68.25 -63.5,-54.375 -63.5,-54.375 C-63.5,-54.375 -135.125,-29 -135.125,-29 C-135.125,-29 -117.75,74.75 -117.75,74.75 C-117.75,74.75 -40.75,74.75 -40.75,74.75 C-40.75,74.75 38,61 38,61 C38,61 138,30.5 138,30.5 C138,30.5 120.375,-72.625 120.375,-72.625z"/></g></g><g mask="url(#__lottie_element_818_1)" style="display: block;"><g transform="matrix(1,0,0,1,145,77)" opacity="1"><g opacity="1" transform="matrix(1,0,0,1,0,0)"><path fill="rgb(235,235,235)" fill-opacity="1" d=" M120.375,-72.625 C120.375,-72.625 15.125,-68.25 15.125,-68.25 C15.125,-68.25 -63.5,-54.375 -63.5,-54.375 C-63.5,-54.375 -135.125,-29 -135.125,-29 C-135.125,-29 -117.75,74.75 -117.75,74.75 C-117.75,74.75 -40.75,74.75 -40.75,74.75 C-40.75,74.75 38,61 38,61 C38,61 138,30.5 138,30.5 C138,30.5 120.375,-72.625 120.375,-72.625z"/></g></g></g><g transform="matrix(1,0,0,1,145,77)" opacity="0.15" style="display: block;"><g opacity="1" transform="matrix(1,0,0,1,0,0)"><path fill="rgb(116,113,113)" fill-opacity="1" d=" M14.5,-69.25 C14.5,-69.25 -63.5,-55 -63.5,-55 C-63.5,-55 -59.25,-27.25 -59.25,-27.25 C-59.25,-27.25 -49,27.25 -49,27.25 C-49,27.25 -42.25,67.5 -42.25,67.5 C-42.25,67.5 -40.25,74 -40.25,74 C-40.25,74 38,61 38,61 C38,61 23.5,-21.5 23.5,-21.5 C23.5,-21.5 14.5,-69.25 14.5,-69.25z"/></g></g></g></g></svg>